<?xml version="1.0" encoding="utf-8"?>
<!-- Generator: Adobe Illustrator 19.0.0, SVG Export Plug-In . SVG Version: 6.00 Build 0)  -->
<svg version="1.1" id="Layer_1" xmlns="http://www.w3.org/2000/svg" xmlns:xlink="http://www.w3.org/1999/xlink" x="0px" y="0px"
	 viewBox="0 0 770 600" style="enable-background:new 0 0 770 600;" xml:space="preserve">
<style type="text/css">
	.st0{opacity:0.9;fill:#8383A8;enable-background:new    ;}
	.st1{opacity:0.9;fill:#6F6F8C;enable-background:new    ;}
	.st2{opacity:0.9;fill:#A4A6D9;enable-background:new    ;}
	.st3{opacity:0.9;fill:#64647D;enable-background:new    ;}
	.st4{opacity:0.9;fill:#7D7DA0;enable-background:new    ;}
	.st5{opacity:0.9;fill:#717090;enable-background:new    ;}
	.st6{opacity:0.5;fill:#D9D7F0;enable-background:new    ;}
	.st7{fill:#333333;}
	.st8{font-family:'ArialMT';}
	.st9{font-size:10.9198px;}
	.st10{display:none;fill:#333333;enable-background:new    ;}
	.st11{font-size:2.8571px;}
	.st12{fill:none;stroke:#942911;stroke-width:3;}
	.st13{opacity:0.5;fill:none;stroke:#942911;stroke-width:3;stroke-dasharray:3,3;enable-background:new    ;}
	.st14{fill:#593837;}
	.st15{fill:none;stroke:#211A6E;stroke-width:3;}
	.st16{opacity:0.5;fill:none;stroke:#211A6E;stroke-dasharray:5,5;enable-background:new    ;}
	.st17{fill:#211A6E;}
	.st18{fill:#211A6E;fill-opacity:0.5;stroke:#000000;}
	.st19{fill:none;stroke:#000000;}
	.st20{fill:#DC9C89;}
	.st21{fill:#767676;}
	.st22{font-size:7.9417px;}
	.st23{font-family:'Arial-BoldMT';}
	.st24{font-size:11.9125px;}
	.st25{fill:none;stroke:#AAAAAA;stroke-width:0.5;stroke-dasharray:2,2;}
	.st26{font-size:9.9271px;}
	.st27{fill:none;stroke:#000000;stroke-width:0.5;}
	.st28{fill:none;stroke:#999999;}
	.st29{display:none;}
	.st30{display:inline;fill:none;stroke:#AAAAAA;stroke-width:0.5;stroke-dasharray:2,2;}
	.st31{display:inline;}
	.st32{fill:none;}
	.st33{fill:#FFFFFF;}
	.st34{font-size:13.8979px;}
	.st35{fill:#942911;}
</style>
<g transform="translate(55,40)">
	<path class="st0" d="M-8.8,245.9l23.2-0.2l23.1-4.2l23.1,0.1l23.1-2l23.2-1.2l23.1,0l23.1-0.1l23.1,6.6l23.2,3.9l23.1,0.5l23.1,1.3
		l23.1,0.4l23.2-1v99.6h-23.2H246h-23.1h-23.1h-23.2h-23.1h-23.1h-23.1H83.9H60.7H37.6H14.4H-8.8V245.9z"/>
	<path class="st1" d="M-8.8,184.2l23.2-10.3l23.1,3.7l23.1-2.2l23.1-3.5l23.2,3.1l23.1,1.9l23.1-5.6l23.1,2.9l23.2,15l23.1,7
		l23.1,2.7l23.1-3.8l23.2,1.8v53.3l-23.2,1l-23.1-0.4l-23.1-1.3l-23.1-0.5l-23.2-3.9l-23.1-6.6l-23.1,0.1l-23.1,0l-23.2,1.2l-23.1,2
		l-23.1-0.1l-23.1,4.2l-23.2,0.2V184.2z"/>
	<path class="st0" d="M-8.8,126.5l23.2-9.4l23.1,3.2l23.1-1.5l23.1-4.7l23.2,4.3l23.1,3l23.1-3.7l23.1,2.6l23.2,16.5l23.1,5.1
		l23.1,2.8l23.1-4.1l23.2,1.7v54.6l-23.2-1.8l-23.1,3.8l-23.1-2.7l-23.1-7l-23.2-15l-23.1-2.9l-23.1,5.6l-23.1-1.9l-23.2-3.1
		l-23.1,3.5l-23.1,2.2l-23.1-3.7l-23.2,10.3V126.5z"/>
	<path class="st2" d="M-8.8,101.1l23.2-8.7l23.1,2l23.1-0.5l23.1-5.5l23.2,5.2l23.1,2.6l23.1-3.8l23.1,2.4l23.2,16.3l23.1,4.4
		l23.1,2.5l23.1-2.6l23.2,1.3v25.6l-23.2-1.7l-23.1,4.1l-23.1-2.8l-23.1-5.1l-23.2-16.5l-23.1-2.6l-23.1,3.7l-23.1-3l-23.2-4.3
		l-23.1,4.7l-23.1,1.5l-23.1-3.2l-23.2,9.4V101.1z"/>
	<path class="st3" d="M-8.8,96.7l23.2-8.8l23.1,2l23.1-0.6l23.1-5.5l23.2,5.1l23.1,2.6l23.1-3.8l23.1,2.3l23.2,16.3l23.1,4.3
		l23.1,2.3l23.1-2.6l23.2,1.2v5.2l-23.2-1.3l-23.1,2.6l-23.1-2.5l-23.1-4.4l-23.2-16.3l-23.1-2.4l-23.1,3.8l-23.1-2.6l-23.2-5.2
		l-23.1,5.5l-23.1,0.5l-23.1-2l-23.2,8.7V96.7z"/>
	<path class="st4" d="M-8.8,92.5l23.2-9l23.1,1.7l23.1-1.1l23.1-6l23.2,4.6l23.1,2.2l23.1-4.2l23.1,1.7L199.7,98l23.1,3.4l23.1,1.5
		l23.1-3.2l23.2,0.8v10.9l-23.2-1.2l-23.1,2.6l-23.1-2.3l-23.1-4.3l-23.2-16.3l-23.1-2.3l-23.1,3.8l-23.1-2.6l-23.2-5.1l-23.1,5.5
		l-23.1,0.6l-23.1-2l-23.2,8.8V92.5z"/>
	<path class="st5" d="M-8.8,73.6l23.2-9.3l23.1,0.8l23.1-1.4l23.1-5.8l23.2,4.2l23.1,1.5l23.1-4.1l23.1,1.5l23.2,16.5l23.1,3.6
		l23.1,0.8l23.1-3.7l23.2,0.9v21.3l-23.2-0.8l-23.1,3.2l-23.1-1.5L199.7,98l-23.2-15.5l-23.1-1.7L130.2,85l-23.1-2.2l-23.2-4.6
		l-23.1,6l-23.1,1.1l-23.1-1.7l-23.2,9V73.6z"/>
	<path class="st6" d="M292.4,79.1l162.1,16.7l231.7,101.3v152.6H454.5H292.4V79.1z"/>
	<text transform="matrix(1 0 0 1 11.0778 328.6548)" class="st7 st8 st9">Transportation</text>
	<text transform="matrix(1 0 0 1 11.0778 232.7721)" class="st7 st8 st9">Electric</text>
	<text transform="matrix(1 0 0 1 11.0778 164.69)" class="st7 st8 st9">Industrial</text>
	<text transform="matrix(1 0 0 1 11.0778 115.9303)" class="st7 st8 st9">Commerical and Residential</text>
	<text transform="matrix(1 0 0 1 -35.5201 -3.4556)" class="st10 st8 st11">Recycling and Waste</text>
	<text transform="matrix(1 0 0 1 11.0778 91.7408)" class="st10 st8 st9">High GWP</text>
	<text transform="matrix(1 0 0 1 -35.5201 -6.7548)" class="st10 st8 st11">Agriculture</text>
</g>
<g transform="translate(55,40)">
	<path class="st12" d="M-8.8,149.4l23.2-3l23.1-2.5l23.1-2.7l23.1-2.1l23.2-1.4l23.1-1.5l23.1-1.8l23.1-1.8l23.2-1.3l23.1-1.4
		l23.1-1.5l23.1-1.8l23.2-1.7"/>
	<path class="st13" d="M292.4,124.9l23.1-2l23.1-2.3l115.8-10.1l115.9-10.3L686.1,90"/>
	<circle class="st14" cx="-8.8" cy="149.4" r="4"/>
	<circle class="st14" cx="14.4" cy="146.4" r="4"/>
	<circle class="st14" cx="37.6" cy="143.9" r="4"/>
	<circle class="st14" cx="60.7" cy="141.2" r="4"/>
	<circle class="st14" cx="83.9" cy="139.1" r="4"/>
	<circle class="st14" cx="107.1" cy="137.7" r="4"/>
	<circle class="st14" cx="130.2" cy="136.2" r="4"/>
	<circle class="st14" cx="153.4" cy="134.4" r="4"/>
	<circle class="st14" cx="176.5" cy="132.6" r="4"/>
	<circle class="st14" cx="199.7" cy="131.3" r="4"/>
	<circle class="st14" cx="222.9" cy="129.9" r="4"/>
	<circle class="st14" cx="246" cy="128.4" r="4"/>
	<circle class="st14" cx="269.2" cy="126.6" r="4"/>
	<circle class="st14" cx="292.4" cy="124.9" r="4"/>
</g>
<g transform="translate(55,40)">
	<path class="st15" d="M-8.8,73.6l23.2-9.4l23.1,0.9l23.1-1.4l23.1-5.8l23.2,4.2l23.1,1.5l23.1-4.1l23.1,1.5l23.2,16.5l23.1,3.6
		l23.1,0.8l23.1-3.7l23.2,0.9"/>
	<path class="st16" d="M292.4,79.1l23.1,2.4l23.1,4.8l115.8,9.5l115.9,50.7l115.8,50.7"/>
	<circle class="st17" cx="-8.8" cy="73.6" r="4"/>
	<circle class="st17" cx="14.4" cy="64.1" r="4"/>
	<circle class="st17" cx="37.6" cy="65.1" r="4"/>
	<circle class="st17" cx="60.7" cy="63.7" r="4"/>
	<circle class="st17" cx="83.9" cy="57.9" r="4"/>
	<circle class="st17" cx="107.1" cy="62.1" r="4"/>
	<circle class="st17" cx="130.2" cy="63.6" r="4"/>
	<circle class="st17" cx="153.4" cy="59.5" r="4"/>
	<circle class="st17" cx="176.5" cy="61" r="4"/>
	<circle class="st17" cx="199.7" cy="77.5" r="4"/>
	<circle class="st17" cx="222.9" cy="81.1" r="4"/>
	<circle class="st17" cx="246" cy="81.9" r="4"/>
	<circle class="st17" cx="269.2" cy="78.2" r="4"/>
	<circle class="st17" cx="292.4" cy="79.1" r="4"/>
	<circle class="st18" cx="454.5" cy="95.8" r="6"/>
	<g transform="translate(466.6453857421875,100.27333068847656)">
		<line class="st19" x1="-12.2" y1="-4.5" x2="-12.2" y2="65"/>
		<text transform="matrix(1 0 0 1 -56.8468 83.0866)" class="st8 st9">The 2020 goal</text>
		<text transform="matrix(1 0 0 1 -56.8468 96.1862)" class="st8 st9">(431 million tonnes CO2e)</text>
	</g>
</g>
<g transform="translate(55,416)">
	<rect x="-8.8" y="-6.5" class="st20" width="20.2" height="50.3"/>
	<rect x="13.7" y="43.8" class="st20" width="20.2" height="2"/>
	<rect x="36.2" y="27.3" class="st20" width="20.2" height="16.5"/>
	<rect x="58.7" y="17.3" class="st20" width="20.2" height="26.5"/>
	<rect x="81.2" y="16" class="st20" width="20.2" height="27.8"/>
	<rect x="103.7" y="17.3" class="st20" width="20.2" height="26.5"/>
	<rect x="126.2" y="22.6" class="st20" width="20.2" height="21.2"/>
	<rect x="148.6" y="33.2" class="st20" width="20.2" height="10.6"/>
	<rect x="171.1" y="40.5" class="st20" width="20.2" height="3.3"/>
	<rect x="193.6" y="43.8" class="st20" width="20.2" height="29.1"/>
	<rect x="216.1" y="36.5" class="st20" width="20.2" height="7.3"/>
	<rect x="238.6" y="35.9" class="st20" width="20.2" height="7.9"/>
	<rect x="261.1" y="27.3" class="st20" width="20.2" height="16.5"/>
	<rect x="283.6" y="28.6" class="st20" width="20.2" height="15.2"/>
	<polygon class="st20" points="306.1,43.8 326.3,43.8 326.3,43.8 	"/>
	<polygon class="st20" points="328.6,43.8 348.8,43.8 348.8,43.8 	"/>
	<polygon class="st20" points="441,43.8 461.2,43.8 461.2,43.8 	"/>
	<polygon class="st20" points="553.4,43.8 573.7,43.8 573.7,43.8 	"/>
	<polygon class="st20" points="665.9,43.8 686.1,43.8 686.1,43.8 	"/>
</g>
<g transform="translate(55,511)">
	<text transform="matrix(1 0 0 1 -8.7737 -7.1753)" class="st21 st8 st22">Sources: California Air Resources Board; California Department of Finance; US Bureau of Economic Analysis. Graphic by Jeremy Rue for CALMatters.</text>
</g>
<g transform="translate(405, 15)">
	<text transform="matrix(1 0 0 1 -173.9104 -3.5581)" class="st23 st24">California&apos;s Emissions, Population and Economic Growth</text>
</g>
<g transform="translate(755,416)">
	<g transform="translate(0,77.33333333333333)">
		<line class="st25" x1="-13.9" y1="-7" x2="-708.8" y2="-7"/>
		<text transform="matrix(1 0 0 1 -720.5764 -3.8679)" class="st8 st26">-4</text>
	</g>
	<g transform="translate(0,63.99999999999999)">
		<line class="st25" x1="-13.9" y1="-7" x2="-708.8" y2="-7"/>
		<text transform="matrix(1 0 0 1 -720.5764 -3.7729)" class="st8 st26">-2</text>
	</g>
	<g transform="translate(0,50.666666666666664)">
		<line class="st27" x1="-13.9" y1="-6.9" x2="-708.8" y2="-6.9"/>
		<text transform="matrix(1 0 0 1 -717.2718 -3.6759)" class="st8 st26">0</text>
	</g>
	<g transform="translate(0,37.333333333333336)">
		<line class="st25" x1="-13.9" y1="-6.8" x2="-708.8" y2="-6.8"/>
		<text transform="matrix(1 0 0 1 -717.2718 -3.5789)" class="st8 st26">2</text>
	</g>
	<g transform="translate(0,23.999999999999993)">
		<line class="st25" x1="-13.9" y1="-6.7" x2="-708.8" y2="-6.7"/>
		<text transform="matrix(1 0 0 1 -717.2718 -3.4839)" class="st8 st26">4</text>
	</g>
	<g transform="translate(0,10.666666666666664)">
		<line class="st25" x1="-13.9" y1="-6.6" x2="-708.8" y2="-6.6"/>
		<text transform="matrix(1 0 0 1 -717.2718 -3.3849)" class="st8 st26">6</text>
	</g>
	<path class="st28" d="M-708.8-6.5h694.9v79.4h-694.9"/>
</g>
<g transform="translate(755,40)">
	<g transform="translate(0,356)" class="st29">
		<line class="st30" x1="-13.9" y1="-6.3" x2="-708.8" y2="-6.3"/>
		<text transform="matrix(1 0 0 1 -725.549 -3.1597)" class="st31 st8 st26">0.0</text>
	</g>
	<g transform="translate(0,326.3333333333333)">
		<line class="st25" x1="-13.9" y1="-6.1" x2="-708.8" y2="-6.1"/>
		<text transform="matrix(1 0 0 1 -733.8187 -2.9461)" class="st8 st26">5.0M</text>
	</g>
	<g transform="translate(0,296.6666666666667)">
		<line class="st25" x1="-13.9" y1="-5.9" x2="-708.8" y2="-5.9"/>
		<text transform="matrix(1 0 0 1 -731.0628 -2.7286)" class="st8 st26">10M</text>
	</g>
	<g transform="translate(0,267)">
		<line class="st25" x1="-13.9" y1="-5.7" x2="-708.8" y2="-5.7"/>
		<text transform="matrix(1 0 0 1 -731.0628 -2.5111)" class="st8 st26">15M</text>
	</g>
	<g transform="translate(0,237.33333333333337)">
		<line class="st25" x1="-13.9" y1="-5.5" x2="-708.8" y2="-5.5"/>
		<text transform="matrix(1 0 0 1 -731.0628 -2.2938)" class="st8 st26">20M</text>
	</g>
	<g transform="translate(0,207.66666666666663)">
		<line class="st25" x1="-13.9" y1="-5.3" x2="-708.8" y2="-5.3"/>
		<text transform="matrix(1 0 0 1 -731.0628 -2.0802)" class="st8 st26">25M</text>
	</g>
	<g transform="translate(0,178)">
		<line class="st25" x1="-13.9" y1="-5" x2="-708.8" y2="-5"/>
		<text transform="matrix(1 0 0 1 -731.0628 -1.8627)" class="st8 st26">30M</text>
	</g>
	<g transform="translate(0,148.33333333333331)">
		<line class="st25" x1="-13.9" y1="-4.8" x2="-708.8" y2="-4.8"/>
		<text transform="matrix(1 0 0 1 -731.0628 -1.6472)" class="st8 st26">35M</text>
	</g>
	<g transform="translate(0,118.66666666666669)">
		<line class="st25" x1="-13.9" y1="-4.6" x2="-708.8" y2="-4.6"/>
		<text transform="matrix(1 0 0 1 -731.0628 -1.4298)" class="st8 st26">40M</text>
	</g>
	<g transform="translate(0,89)">
		<line class="st25" x1="-13.9" y1="-4.4" x2="-708.8" y2="-4.4"/>
		<text transform="matrix(1 0 0 1 -731.0628 -1.2124)" class="st8 st26">45M</text>
	</g>
	<g transform="translate(0,59.33333333333332)">
		<line class="st25" x1="-13.9" y1="-4.2" x2="-708.8" y2="-4.2"/>
		<text transform="matrix(1 0 0 1 -731.0628 -0.9989)" class="st8 st26">50M</text>
	</g>
	<g transform="translate(0,29.66666666666668)">
		<line class="st25" x1="-13.9" y1="-4" x2="-708.8" y2="-4"/>
		<text transform="matrix(1 0 0 1 -731.0628 -0.7813)" class="st8 st26">55M</text>
	</g>
	<g transform="translate(0,0)">
		<line class="st25" x1="-13.9" y1="-3.7" x2="-708.8" y2="-3.7"/>
		<text transform="matrix(1 0 0 1 -731.0628 -0.5639)" class="st8 st26">60M</text>
	</g>
	<path class="st32" d="M-708.8-3.7h694.9v353.4h-694.9"/>
	<text transform="matrix(6.123234e-17 -1 1 6.123234e-17 -743.5179 269.6685)" class="st23 st26">10s of METRIC TONS of CO2 (equivalent)</text>
</g>
<g transform="translate(55,396)">
	<g transform="translate(0,0)">
		<line class="st19" x1="-8.8" y1="-6.3" x2="-8.8" y2="-0.4"/>
		<text transform="matrix(1 0 0 1 -19.8147 9.6432)" class="st8 st26">2000</text>
	</g>
	<g transform="translate(46.696475982666016,0)">
		<line class="st19" x1="-9.1" y1="-6.3" x2="-9.1" y2="-0.4"/>
		<text transform="matrix(1 0 0 1 -20.1557 9.6432)" class="st8 st26">2002</text>
	</g>
	<g transform="translate(93.32907104492188,0)">
		<line class="st19" x1="-9.5" y1="-6.3" x2="-9.5" y2="-0.4"/>
		<text transform="matrix(1 0 0 1 -20.4933 9.6432)" class="st8 st26">2004</text>
	</g>
	<g transform="translate(140.0255584716797,0)">
		<line class="st19" x1="-9.8" y1="-6.3" x2="-9.8" y2="-0.4"/>
		<text transform="matrix(1 0 0 1 -20.8364 9.6432)" class="st8 st26">2006</text>
	</g>
	<g transform="translate(186.65814208984375,0)">
		<line class="st19" x1="-10.1" y1="-6.3" x2="-10.1" y2="-0.4"/>
		<text transform="matrix(1 0 0 1 -21.176 9.6432)" class="st8 st26">2008</text>
	</g>
	<g transform="translate(233.35462951660156,0)">
		<line class="st19" x1="-10.5" y1="-6.3" x2="-10.5" y2="-0.4"/>
		<text transform="matrix(1 0 0 1 -21.517 9.6432)" class="st8 st26">2010</text>
	</g>
	<g transform="translate(279.9872131347656,0)">
		<line class="st19" x1="-10.8" y1="-6.3" x2="-10.8" y2="-0.4"/>
		<text transform="matrix(1 0 0 1 -21.8566 9.6432)" class="st8 st26">2012</text>
	</g>
	<g transform="translate(326.6837158203125,0)">
		<line class="st19" x1="-11.2" y1="-6.3" x2="-11.2" y2="-0.4"/>
		<text transform="matrix(1 0 0 1 -22.1956 9.6432)" class="st8 st26">2014</text>
	</g>
	<g transform="translate(373.3162841796875,0)">
		<line class="st19" x1="-11.5" y1="-6.3" x2="-11.5" y2="-0.4"/>
		<text transform="matrix(1 0 0 1 -22.5373 9.6432)" class="st8 st26">2016</text>
	</g>
	<g transform="translate(420.0127868652344,0)">
		<line class="st19" x1="-11.8" y1="-6.3" x2="-11.8" y2="-0.4"/>
		<text transform="matrix(1 0 0 1 -22.8744 9.6432)" class="st8 st26">2018</text>
	</g>
	<g transform="translate(466.6453857421875,0)">
		<line class="st19" x1="-12.2" y1="-6.3" x2="-12.2" y2="-0.4"/>
		<text transform="matrix(1 0 0 1 -23.2159 9.6432)" class="st8 st26">2020</text>
	</g>
	<g transform="translate(513.3418579101562,0)">
		<line class="st19" x1="-12.5" y1="-6.3" x2="-12.5" y2="-0.4"/>
		<text transform="matrix(1 0 0 1 -23.555 9.6432)" class="st8 st26">2022</text>
	</g>
	<g transform="translate(559.9744262695312,0)">
		<line class="st19" x1="-12.9" y1="-6.3" x2="-12.9" y2="-0.4"/>
		<text transform="matrix(1 0 0 1 -23.8966 9.6432)" class="st8 st26">2024</text>
	</g>
	<g transform="translate(606.6708984375,0)">
		<line class="st19" x1="-13.2" y1="-6.3" x2="-13.2" y2="-0.4"/>
		<text transform="matrix(1 0 0 1 -24.2395 9.6432)" class="st8 st26">2026</text>
	</g>
	<g transform="translate(653.3035278320312,0)">
		<line class="st19" x1="-13.5" y1="-6.3" x2="-13.5" y2="-0.4"/>
		<text transform="matrix(1 0 0 1 -24.5812 9.6432)" class="st8 st26">2028</text>
	</g>
	<g transform="translate(700,0)">
		<line class="st19" x1="-13.9" y1="-6.3" x2="-13.9" y2="-0.4"/>
		<text transform="matrix(1 0 0 1 -24.9201 9.6432)" class="st8 st26">2030</text>
	</g>
	<path class="st19" d="M-8.8-0.4v-6h694.9v6"/>
</g>
<rect x="743.1" y="117.2" class="st33" width="14.9" height="272.5"/>
<g transform="translate(55,40)">
	<g transform="translate(14,12)">
		<rect x="-8.9" y="-3.8" class="st17" width="11.9" height="11.9"/>
		<text transform="matrix(1 0 0 1 6.0173 3.1197)" class="st8 st34">Greenhouse Gas Emissions</text>
	</g>
	<g transform="translate(244.99999999999997,12)">
		<rect x="-10.6" y="-3.8" class="st35" width="11.9" height="11.9"/>
		<text transform="matrix(1 0 0 1 4.3337 3.1197)" class="st8 st34">Population</text>
	</g>
	<g transform="translate(385.00000000000006,12)">
		<rect x="-11.6" y="-3.8" class="st20" width="11.9" height="11.9"/>
		<text transform="matrix(1 0 0 1 3.3103 3.1197)" class="st8 st34">Economic Growth</text>
	</g>
</g>
</svg>
