<svg xmlns="http://www.w3.org/2000/svg" xmlns:xlink="http://www.w3.org/1999/xlink" version="1.1" x="0px" y="0px" viewBox="0 0 100 100" enable-background="new 0 0 100 100" xml:space="preserve"><path d="M86.842,0H13.158c-2.894,0-5.264,2.368-5.264,5.263v89.474c0,2.893,2.37,5.263,5.264,5.263h73.684  c2.896,0,5.264-2.37,5.264-5.263V5.263C92.105,2.368,89.738,0,86.842,0z M84.211,92.105H15.789V7.895h68.422V92.105z"></path><rect x="27.895" y="22.105" width="44.211" height="5.263"></rect><rect x="64.737" y="38.947" width="7.368" height="5.264"></rect><rect x="64.737" y="55.789" width="7.368" height="5.264"></rect><rect x="64.737" y="72.632" width="7.368" height="5.263"></rect><rect x="27.895" y="38.947" width="31.579" height="5.264"></rect><rect x="27.895" y="55.789" width="31.579" height="5.264"></rect><rect x="27.895" y="72.632" width="31.579" height="5.263"></rect></svg>